<svg width="35" height="23" viewBox="0 0 35 23" fill="none" xmlns="http://www.w3.org/2000/svg">
<path fill-rule="evenodd" clip-rule="evenodd" d="M0 1.5C0 0.671573 0.671573 0 1.5 0H33.5C34.3284 0 35 0.671573 35 1.5C35 2.32843 34.3284 3 33.5 3H1.5C0.671573 3 0 2.32843 0 1.5ZM0 11.5C0 10.6716 0.671573 10 1.5 10H33.5C34.3284 10 35 10.6716 35 11.5C35 12.3284 34.3284 13 33.5 13H1.5C0.671573 13 0 12.3284 0 11.5ZM0 21.5C0 20.6716 0.671573 20 1.5 20H33.5C34.3284 20 35 20.6716 35 21.5C35 22.3284 34.3284 23 33.5 23H1.5C0.671573 23 0 22.3284 0 21.5Z" fill="#F2D8C2"/>
</svg>
