<svg width="27" height="18" viewBox="0 0 27 18" fill="none" xmlns="http://www.w3.org/2000/svg">
<path d="M13.5 0C7.36473 0 2.14554 3.71921 0 9C2.14554 14.2808 7.36473 18 13.5 18C19.6353 18 24.8545 14.2808 27 9C24.8545 3.71921 19.6353 0 13.5 0ZM13.5 15.002C10.125 15.002 7.36473 12.302 7.36473 9C7.36473 5.69801 10.125 2.99801 13.5 2.99801C16.875 2.99801 19.6353 5.69801 19.6353 9C19.6353 12.302 16.875 15.002 13.5 15.002ZM13.5 5.4C11.475 5.4 9.81763 7.02119 9.81763 9C9.81763 10.9788 11.475 12.6 13.5 12.6C15.525 12.6 17.1824 10.9788 17.1824 9C17.1824 7.02119 15.525 5.4 13.5 5.4Z" fill="#666262"/>
</svg>
