<svg width="77" height="38" viewBox="0 0 77 38" fill="none" xmlns="http://www.w3.org/2000/svg">
<rect x="24.1899" width="28.5693" height="38" rx="4" fill="#262626"/>
<rect x="25.2993" y="1.10938" width="26.3504" height="35.781" rx="4" fill="#666262"/>
<rect x="37.5039" y="2.21899" width="2.21898" height="8.87591" rx="1.10949" fill="#F2C8A2"/>
<rect x="37.5039" y="26.9053" width="2.21898" height="8.87591" rx="1.10949" fill="#F2C8A2"/>
<rect x="37.5039" y="14.7007" width="2.21898" height="8.87591" rx="1.10949" fill="#F2C8A2"/>
<rect x="29.1826" y="11.1406" width="4.21693" height="4.21693" transform="rotate(-47.2553 29.1826 11.1406)" fill="#262626"/>
<rect x="29.7778" y="12.814" width="4.21693" height="4.21693" transform="rotate(-81.9136 29.7778 12.814)" fill="#262626"/>
<rect x="41.6641" y="27.5059" width="4.21693" height="4.21693" transform="rotate(-47.2553 41.6641 27.5059)" fill="#262626"/>
<rect x="42.2598" y="29.1792" width="4.21693" height="4.21693" transform="rotate(-81.9136 42.2598 29.1792)" fill="#262626"/>
<path d="M0.388335 28.5547L9.05834 7.55469H12.7783L21.3583 28.5547H17.9383L15.5083 22.4047H6.11833L3.65833 28.5547H0.388335ZM7.13833 19.7947H14.4883L10.8283 10.5547L7.13833 19.7947Z" fill="#666262"/>
<path d="M68.3494 28.6073C66.7894 28.6073 65.3394 28.3373 63.9994 27.7973C62.6794 27.2373 61.5094 26.4673 60.4894 25.4873C59.4894 24.4873 58.7094 23.3373 58.1494 22.0373C57.6094 20.7173 57.3394 19.2973 57.3394 17.7773C57.3394 16.2573 57.6094 14.8473 58.1494 13.5473C58.7094 12.2273 59.4894 11.0773 60.4894 10.0973C61.5094 9.09734 62.6894 8.32734 64.0294 7.78734C65.3694 7.22734 66.8094 6.94734 68.3494 6.94734C69.4494 6.94734 70.5194 7.09734 71.5594 7.39734C72.6194 7.67734 73.5894 8.08734 74.4694 8.62734C75.3694 9.16734 76.1494 9.81734 76.8094 10.5773L74.7094 12.7373C73.9294 11.7973 72.9794 11.0873 71.8594 10.6073C70.7394 10.1073 69.5694 9.85734 68.3494 9.85734C67.2294 9.85734 66.1894 10.0573 65.2294 10.4573C64.2894 10.8573 63.4694 11.4173 62.7694 12.1373C62.0694 12.8373 61.5194 13.6673 61.1194 14.6273C60.7394 15.5873 60.5494 16.6373 60.5494 17.7773C60.5494 18.8973 60.7394 19.9373 61.1194 20.8973C61.5194 21.8573 62.0794 22.6973 62.7994 23.4173C63.5194 24.1373 64.3594 24.6973 65.3194 25.0973C66.2794 25.4973 67.3194 25.6973 68.4394 25.6973C69.6594 25.6973 70.8094 25.4573 71.8894 24.9773C72.9894 24.4773 73.9194 23.7773 74.6794 22.8773L76.7494 24.9773C76.0494 25.7173 75.2494 26.3673 74.3494 26.9273C73.4694 27.4673 72.5094 27.8873 71.4694 28.1873C70.4494 28.4673 69.4094 28.6073 68.3494 28.6073Z" fill="#666262"/>
</svg>
